<svg width="11" height="16" viewBox="0 0 11 16" fill="none" xmlns="http://www.w3.org/2000/svg">
<path d="M0.859346 13.7363V15.246C0.859346 15.3769 1.00974 15.4491 1.1113 15.3691L9.91599 8.49212C9.9908 8.43394 10.0513 8.35945 10.093 8.27432C10.1346 8.18919 10.1563 8.09567 10.1563 8.0009C10.1563 7.90614 10.1346 7.81262 10.093 7.72749C10.0513 7.64236 9.9908 7.56787 9.91599 7.50969L1.1113 0.63274C1.00778 0.552663 0.859346 0.624928 0.859346 0.755787V2.26555C0.859346 2.36126 0.904268 2.45305 0.978487 2.51165L8.00974 7.99993L0.978487 13.4902C0.904268 13.5488 0.859346 13.6406 0.859346 13.7363Z" fill="#004CBD"/>
</svg>
